<?xml version="1.0" standalone="no"?><!DOCTYPE svg PUBLIC "-//W3C//DTD SVG 1.1//EN" "http://www.w3.org/Graphics/SVG/1.1/DTD/svg11.dtd"><svg t="1748273648700" class="icon" viewBox="0 0 2965 1024" version="1.1" xmlns="http://www.w3.org/2000/svg" p-id="5216" xmlns:xlink="http://www.w3.org/1999/xlink" width="579.1015625" height="200"><path d="M1401.472 266.282667l1.557333-1.088c15.616-11.093333 36.096-5.866667 45.994667 13.333333 9.173333 17.770667 17.152 37.504 19.413333 57.109333a834.56 834.56 0 0 1 5.333334 112.469334c-0.746667 37.312-16.64 69.098667-36.010667 99.285333l-2.730667 4.202667-2.773333 4.181333-2.773333 4.16-5.653334 8.298667-2.837333 4.138666a10.666667 10.666667 0 0 1-3.157333 2.773334l-1.301334 0.810666-4.117333 2.410667-2.005333 1.216a101.76 101.76 0 0 0-2.218667 1.429333 183.466667 183.466667 0 0 0-3.328-7.744l-4.266667-9.301333c-3.605333-7.914667-6.634667-15.509333-7.189333-23.274667-0.490667-6.613333 12.736-20.714667 18.389333-20.053333 13.141333 1.578667 18.133333-4.117333 21.333334-11.904l0.533333-1.408 0.746667-2.133333 0.725333-2.24 0.469333-1.493334c2.517333-8.213333 4.48-17.045333 4.266667-25.557333l-0.512-24.746667a2470.250667 2470.250667 0 0 0-3.733333-99.029333c-2.197333-35.114667-27.349333-52.373333-61.76-45.781333-29.290667 5.610667-58.709333 10.986667-88.32 14.464-15.36 1.792-24.277333 8.341333-28.16 22.485333l-0.64 2.261333-1.962667 6.826667c-1.706667 6.101333-3.221333 12.245333-3.584 18.432-0.853333 14.634667-1.642667 29.269333-2.389333 43.925333l-2.197334 43.946667a5161.6 5161.6 0 0 1-4.970666 87.808c-0.533333 7.829333-2.645333 15.530667-5.077334 23.210667l-2.453333 7.68c-1.088 3.413333-2.133333 6.848-3.072 10.282666-7.424-11.221333-14.826667-22.421333-22.293333-33.621333-0.298667-0.426667-0.874667-0.704-1.408-1.002667l-0.384-0.213333V378.666667l1.770666-9.770667 3.456-19.562667c2.88-16.32 5.824-32.597333 9.386667-48.768 1.92-8.853333 6.122667-18.112 11.968-24.917333 4.138667-4.821333 12.992-8.618667 19.306667-8.064a1169.066667 1169.066667 0 0 1 72.448 8.874667l9.024 1.386666c24.021333 3.776 46.250667 2.602667 67.157333-11.562666z m-110.656 163.904c25.472-11.008 76.949333 2.346667 92.266667 25.109333 2.773333 4.138667 1.429333 14.101333-1.834667 18.730667-15.850667 22.549333-32.128 21.162667-51.733333 0.213333-1.493333 1.450667-2.965333 3.029333-4.373334 4.650667l-1.685333 1.92-4.842667 5.76-1.557333 1.813333c-3.904 4.373333-7.68 7.701333-11.605333 7.936-13.781333 0.853333-21.013333-7.210667-25.749334-17.408l-0.789333-1.770667-0.746667-1.813333-0.704-1.813333a102.357333 102.357333 0 0 1-0.341333-0.917334l-0.64-1.856-0.64-1.856-1.472-4.629333a841.92 841.92 0 0 1-0.277333-0.917333c-4.693333-15.253333 2.048-26.794667 16.725333-33.152z m40.490667-76.608c10.282667-2.709333 24.341333-0.064 22.677333 14.976-0.405333 3.648-3.050667 7.082667-6.549333 10.730666l-1.664 1.706667-4.522667 4.48-1.856 1.877333c-1.237333 1.301333-2.474667 2.645333-3.669333 4.053334l-35.328-20.842667c2.410667-1.386667 4.778667-2.901333 7.146666-4.437333l3.562667-2.346667c6.506667-4.224 13.056-8.32 20.202667-10.197333z m1522.496 63.210666c7.424-0.746667 19.242667 0.682667 22.037333 5.312 3.882667 6.464 3.072 17.386667 0.832 25.450667-1.984 7.125333-5.12 13.952-8.405333 20.714667l-2.474667 5.077333c-1.237333 2.56-2.453333 5.077333-3.626667 7.658667 2.709333 0.490667 5.418667 0.896 8.128 1.301333l5.461334 0.810667c7.253333 1.088 14.442667 2.346667 21.226666 4.736 3.968 1.408 7.445333 4.266667 10.794667 7.381333l4.48 4.202667c1.130667 1.066667 2.261333 2.069333 3.413333 2.986666-0.938667 0.810667-1.877333 1.706667-2.816 2.688l-1.429333 1.493334-2.837333 3.093333-1.429334 1.493333c-3.306667 3.434667-6.570667 6.229333-9.6 5.973334-22.314667-1.856-29.610667 6.101333-32.298666 21.824l-0.32 1.984-0.256 2.026666-0.234667 2.133334-0.213333 2.197333-0.149334 2.261333-0.128 2.346667c-0.042667 0.384-0.042667 0.789333-0.064 1.194667-1.194667 23.978667-13.44 41.045333-29.696 54.976l-2.517333 2.112c-1.28 1.045333-2.581333 2.069333-3.904 3.093333l-2.666667 2.005333a208.128 208.128 0 0 1-2.709333 1.962667l-2.730667 1.92-2.773333 1.92-2.794667 1.856-2.837333 1.856-4.266667 2.730667-5.674666 3.562666c-4.032 2.496-15.744-1.749333-19.989334-6.4-3.84-4.181333-6.464-9.429333-8.618666-14.293333l-2.410667-5.546667a69.717333 69.717333 0 0 0-1.685333-3.626666c3.712-1.365333 7.445333-2.56 11.157333-3.712l10.986667-3.370667c10.112-3.136 19.562667-6.570667 27.136-12.416 8.362667-6.464 13.504-18.474667 17.152-30.037333l0.917333-3.008 0.853333-2.965334 0.405334-1.450666c5.610667-20.352-1.536-27.562667-22.037334-23.978667l-2.282666 0.426667c-6.293333 1.28-12.48 3.157333-18.645334 5.12l-7.381333 2.432c-2.453333 0.789333-4.906667 1.578667-7.381333 2.304l-0.704 0.234666-2.176 0.789334a6.741333 6.741333 0 0 1-3.434667 0.469333 683.669333 683.669333 0 0 1-18.986667-4.373333l-12.586666-3.050667c1.92-1.706667 3.776-3.541333 5.632-5.397333l4.181333-4.224c5.12-5.12 10.325333-9.984 16.512-12.757334 6.378667-2.858667 13.589333-3.882667 20.906667-4.650666l6.613333-0.64a142.08 142.08 0 0 0 8.746667-1.109334c24.256-4.010667 31.488-18.581333 20.906666-42.325333l-6.997333 2.112-13.589333 4.224a199.978667 199.978667 0 0 1-26.368 6.634667c-3.797333 0.64-7.957333-0.981333-12.181334-2.922667l-3.349333-1.557333a62.4 62.4 0 0 0-5.674667-2.432c0.618667-1.728 1.130667-3.584 1.621334-5.461334l1.429333-5.632 0.618667-2.346666c1.386667-5.034667 3.157333-9.642667 6.464-12.373334 4.117333-3.434667 9.941333-4.928 16.085333-5.973333l2.837333-0.426667 5.696-0.810666c1.408-0.213333 2.773333-0.426667 4.138667-0.682667l11.541333-2.112a592.213333 592.213333 0 0 1 46.421334-7.04z m23.253333-194.986666c8.832-3.050667 23.872-1.877333 29.781333 3.84 6.826667 6.613333 12.032 22.613333 8.618667 30.592-7.061333 16.554667-16.746667 32.085333-26.773333 47.36l-9.301334 14.016c-1.066667 1.621333-3.52 2.218667-6.250666 2.666666l-3.114667 0.512c-2.453333 0.426667-4.8 1.002667-6.314667 2.346667a156.309333 156.309333 0 0 0-14.336 14.634667l-4.544 5.141333-4.586666 5.098667 3.776 5.76 109.589333-8.832c4.074667 32.021333-6.912 45.909333-31.68 46.805333l-3.264 0.085333H2915.626667c-2.496-0.106667-4.757333-0.426667-5.226667-1.429333-7.722667-16.64-19.328-19.669333-31.530667-18.837333l-1.792 0.149333-1.792 0.192a82.944 82.944 0 0 0-0.896 0.106667l-1.792 0.256-2.709333 0.448-1.792 0.32-6.741333 1.322666a111.296 111.296 0 0 1-10.154667 1.621334c-19.84 1.962667-39.530667 5.290667-59.221333 8.832l-22.144 4.032c-9.813333 1.770667-19.690667 3.52-29.546667 5.056l-7.424 1.130666c-17.792 2.602667-28.373333 10.88-32.853333 27.605334l-0.341334 1.344c-1.365333 5.546667-3.413333 11.456-6.890666 15.786666-2.730667 3.413333-8.661333 6.954667-12.330667 6.208-3.434667-0.704-8.170667-6.869333-8.192-10.666666-0.170667-23.146667-0.170667-46.357333 1.856-69.376 1.237333-14.229333 10.432-22.357333 25.173333-17.28l0.981334 0.341333c13.653333 5.141333 18.944 1.834667 20.309333-6.357333l0.170667-1.28c0.064-0.64 0.128-1.301333 0.149333-2.005334l0.042667-1.429333v-1.493333l-0.042667-1.578667-0.085333-1.621333-0.128-1.664a1359.146667 1359.146667 0 0 1-3.968-58.496c-0.298667-7.125333 0.192-14.912 2.88-21.333334 1.365333-3.285333 3.904-6.122667 6.634666-8.853333l3.114667-3.050667c1.024-1.024 2.026667-2.069333 2.986667-3.136 0.810667 1.088 1.770667 2.176 2.773333 3.264l3.882667 4.053334c3.328 3.498667 6.272 7.04 6.293333 10.581333 0.149333 12.437333-1.109333 24.917333-2.602667 37.376l-3.114666 25.130667-0.746667 6.4-0.490667 4.650666-0.298666 3.242667-0.213334 3.029333-0.128 1.92-0.085333 1.813334-0.042667 1.749333v1.664l0.021334 1.557333 0.064 1.493334 0.128 1.429333 0.149333 1.344 0.213333 1.28c1.216 6.784 4.629333 10.346667 11.498667 12.181333l1.28 0.32 1.365333 0.277334 1.450667 0.256 1.536 0.213333 1.6 0.170667 1.706667 0.170666 1.792 0.128 2.837333 0.149334 3.050667 0.106666 4.394666 0.085334 3.541334 0.021333h4.138666l9.066667-0.042667 2.730667-0.042666c26.368-0.704 39.637333-9.365333 49.728-35.882667l1.024-2.773333 0.512-1.408 0.981333-2.944 0.981333-3.072 0.96-3.2 0.938667-3.349334 0.938667-3.477333c0.362667-1.408 0.704-2.837333 1.024-4.266667l1.450666-6.826666 0.384-1.621334 0.405334-1.621333 0.426666-1.6 0.469334-1.557333c2.922667-9.28 8.298667-16.64 23.466666-17.216 1.365333-0.064 2.666667-2.005333 4.010667-4.949334l0.682667-1.536 0.682666-1.685333 3.285334-8.576 0.789333-1.984 0.426667-0.981333 0.853333-1.92a67.626667 67.626667 0 0 1 0.426667-0.96l-4.586667 0.789333-2.816 0.490667-2.666667 0.512-2.517333 0.512-2.346667 0.512-2.218666 0.512-2.069334 0.533333a70.954667 70.954667 0 0 0-3.754666 1.109333l-1.685334 0.597334c-5.696 2.090667-9.237333 4.629333-11.818666 8.277333l-0.704 1.066667a26.026667 26.026667 0 0 0-1.28 2.346666l-0.597334 1.28-0.554666 1.344-0.533334 1.429334a58.965333 58.965333 0 0 0-0.256 0.746666l-0.512 1.557334-0.746666 2.474666-0.746667 2.688-2.773333 10.581334c-2.901333 11.136-10.282667 21.077333-18.389334 30.848l-2.56 3.093333-4.181333 4.906667c-3.84 4.501333-7.573333 9.024-10.901333 13.653333-0.896-0.64-1.92-1.28-2.986667-1.92l-2.218667-1.28-4.032-2.325333-1.514666-0.917334c-3.2-2.005333-5.653333-3.946667-5.546667-5.781333 0.405333-7.914667 2.474667-15.786667 4.906667-23.594667l1.472-4.693333 2.218666-6.954667c0.426667-1.301333 0.896-2.602667 1.408-3.882666l1.536-3.84c1.322667-3.477333 2.453333-7.082667 2.474667-11.178667-13.013333 5.866667-17.130667 16.597333-19.84 28.138667l-0.597333 2.666666-1.429334 6.741334-0.576 2.688c-2.133333 9.386667-5.056 18.410667-12.757333 24.896-18.346667-28.437333-14.122667-82.709333 2.752-99.498667 3.498667 0 6.869333-0.128 10.112-0.32l3.84-0.256 5.482667-0.405333 3.52-0.213334c7.466667-0.426667 14.08-0.32 19.882666 1.92 15.104 5.76 26.581333 1.92 37.290667-4.010666l2.133333-1.216 2.133334-1.258667 3.136-1.92 3.157333-1.962667 2.090667-1.301333 2.112-1.28 2.133333-1.216c3.541333-2.026667 7.168-3.84 10.986667-5.12z m-482.496 32.106666c0.277333 2.176 0.682667 4.352 1.130667 6.549334l1.749333 8.256c1.365333 6.613333 2.346667 13.12 0.938667 19.072a728.810667 728.810667 0 0 1-14.165334 49.962666l-4.416 14.186667c-2.197333 7.104-4.373333 14.208-6.4 21.333333a69.952 69.952 0 0 0-2.048 11.008l-0.405333 3.434667-0.597333 5.546667c-0.213333 1.92-0.448 3.946667-0.746667 6.08 2.282667 0 4.522667 0 6.72 0.042666l12.714667 0.213334c7.189333 0.106667 14.037333 0.064 20.821333-0.490667 6.656-0.533333 13.248-1.685333 19.84-2.944l7.914667-1.557333c2.645333-0.512 5.290667-1.024 7.936-1.493334 3.946667 27.968-5.034667 43.861333-27.84 41.301334l-1.130667-0.149334c-32.490667-4.437333-47.936 6.122667-59.605333 27.285334l-1.194667 2.218666a121.386667 121.386667 0 0 0-0.597333 1.152l-1.152 2.346667-1.152 2.389333-0.554667 1.237334-1.130667 2.517333-1.642666 3.904-1.109334 2.709333-2.197333 5.589334c-7.381333 19.221333-20.48 36.330667-34.624 52.970666l-4.074667 4.736-12.330666 14.144-4.053334 4.736-4.010666 4.736a374.4 374.4 0 0 0-5.845334 7.168c-2.24 2.858667-12.074667 3.477333-14.997333 1.066667-3.178667-2.624-4.629333-10.88-2.922667-15.146667 9.344-23.573333 20.16-46.549333 29.888-69.973333 1.92-4.608 3.733333-9.237333 5.546667-13.994667l2.176-5.781333 3.306667-8.96 4.629333-12.650667 2.496-6.72 1.28-3.477333-5.482667 1.216-7.786666 1.792-11.968 2.816-6.72 1.536c-8.021333 1.770667-15.445333 3.2-22.954667 4.053333-6.698667 0.725333-17.877333-3.072-20.16-7.978666-2.517333-5.397333 0.512-18.581333 5.162667-21.162667l12.650666-7.082667 3.690667-2.026666c12.330667-6.656 25.109333-12.501333 37.909333-13.162667 20.117333-1.045333 28.224-8.405333 33.450667-21.824l0.725333-1.941333 0.362667-1.024 0.682667-2.069334 0.32-1.066666 0.64-2.218667 0.96-3.456 0.32-1.194667c8.021333-31.146667 19.861333-61.568 33.024-91.008 2.133333-4.736 7.36-8.106667 13.205333-11.221333l2.346667-1.237333 2.389333-1.216c3.178667-1.621333 6.336-3.264 9.088-5.077334z m11.114667 238.72c2.048-3.114667 13.333333-2.474667 19.349333-0.384l1.685333 0.576 3.2 1.173334c28.266667 10.666667 37.973333 22.72 39.36 44.288l-10.602666 27.136a80.213333 80.213333 0 0 0-4.693334-1.706667l-3.242666-1.066667-4.906667-1.557333c-5.909333-1.92-11.584-4.117333-15.68-7.978667a146.986667 146.986667 0 0 1-28.245333-37.504c-3.029333-5.717333-0.256-16.853333 3.776-22.976z m-718.549334-120.405333l1.728 1.493333 1.536 1.216 1.536 1.194667 0.917334 0.725333c0.810667 0.704 1.258667 1.237333 1.28 1.792 0.213333 10.496 1.365333 20.928 2.624 31.36l1.386666 11.562667 0.789334 6.933333c2.197333 20.821333 2.944 41.749333-4.181334 63.104l-0.832 2.389334c-4.992 13.866667-7.552 28.586667-9.706666 43.477333l-2.112 14.933333c-1.066667 7.445333-2.197333 14.869333-3.690667 22.186667a140.821333 140.821333 0 0 1-13.973333 38.933333c-19.605333-16.085333-26.837333-36.330667-20.842667-56.597333l3.626667-12.16 7.530666-24.746667 1.237334-4.181333 2.496-8.32c11.456-38.933333 21.333333-78.144 22.442666-119.381333a18.24 18.24 0 0 1 2.090667-7.082667l0.96-1.962667 1.557333-3.221333c0.533333-1.152 1.066667-2.346667 1.6-3.648z m146.090667 69.632l6.762667 2.986667 2.261333 39.104 46.997333-23.402667 10.176 39.594667c1.386667-2.24 2.645333-4.437333 3.84-6.528l2.346667-4.096 3.2-5.781334c3.84-6.784 7.296-12.586667 11.797333-17.429333l3.328-3.584 1.770667-1.856 1.813333-1.856 1.877334-1.856c6.613333-6.4 13.930667-12.010667 20.309333-11.648 9.365333 0.554667 21.397333 13.781333 25.877333 24.170667 5.077333 11.776 7.466667 28.16 3.242667 39.765333-6.528 17.984-14.762667 35.370667-23.338667 52.608l-4.714666 9.386667-5.12 10.154666-5.12 10.154667c-1.173333 2.368-3.498667 4.16-6.016 5.845333l-2.88 1.92c-0.96 0.618667-1.877333 1.28-2.730667 1.941334l-4.8-3.370667c0.810667-1.877333 1.642667-3.733333 2.517333-5.589333l2.624-5.589334c3.968-8.341333 7.936-16.704 10.368-25.472 5.696-20.672 10.410667-41.770667 13.098667-62.976 0.746667-5.930667-5.738667-15.125333-11.477333-18.538666-3.114667-1.834667-13.056 3.968-17.429334 8.661333a292.053333 292.053333 0 0 0-14.336 16.896l-6.912 8.682667c-3.477333 4.330667-6.997333 8.64-10.666666 12.8-1.066667 1.194667-2.197333 2.389333-3.413334 3.541333l-1.834666 1.749333c-0.298667 0.298667-0.64 0.576-0.96 0.853334l-2.005334 1.792-3.242666 2.773333-7.466667 6.250667-2.773333 2.410666-3.008 2.602667-0.213334-1.898667-0.405333-3.584-0.32-3.392-0.789333-8.981333-0.277334-2.666667a48.106667 48.106667 0 0 0-2.474666-11.562666c-2.346667-6.314667-8.874667-15.36-13.589334-15.402667-5.717333-0.042667-14.997333 7.189333-16.554666 12.928-1.728 6.378667-2.453333 13.013333-3.029334 19.669333l-0.576 6.677334c-0.512 5.546667-1.152 11.093333-2.432 16.448-0.896 3.754667-3.776 7.018667-6.976 10.218666l-2.901333 2.88c-1.28 1.28-2.517333 2.56-3.626667 3.882667a42.218667 42.218667 0 0 0-2.346666-3.584l-2.602667-3.626667c-2.602667-3.626667-4.885333-7.210667-4.522667-10.496 3.584-32.149333 8.106667-64.256 14.165334-96.021333 0.682667-3.626667 3.434667-6.869333 6.677333-10.005333l1.792-1.706667 2.773333-2.56c1.514667-1.408 2.986667-2.837333 4.266667-4.288z m73.92-198.4c0.618667 4.544 4.288 9.002667 8.512 13.013333l1.706667 1.578667 0.853333 0.768 3.413333 2.944 0.810667 0.704a16.405333 16.405333 0 0 0 6.144 2.944l1.792 0.512 1.984 0.512 4.565333 1.152 2.602667 0.704 4.309333 1.28c-1.450667 1.194667-2.901333 2.346667-4.309333 3.456l-4.138667 3.221333-7.808 5.973334c-6.848 5.226667-12.8 10.048-17.664 15.786666-5.44 6.421333-9.770667 13.76-13.952 21.248l-4.16 7.466667c-1.408 2.517333-2.816 4.992-4.266666 7.424 2.048-0.426667 4.096-0.810667 6.186666-1.194667l9.322667-1.621333c7.253333-1.28 14.464-2.709333 21.333333-5.077333 7.744-2.645333 15.253333-5.994667 22.698667-9.493334l11.157333-5.290666c2.496-1.173333 4.970667-2.346667 7.466667-3.456l5.077333 6.058666a84.373333 84.373333 0 0 0-3.456 3.477334l-2.261333 2.410666c-3.029333 3.2-6.101333 6.272-9.770667 8.32-21.333333 11.776-24.490667 49.621333-5.952 65.877334 5.162667 4.48 8.277333 13.12 8.938667 20.16 0.213333 2.261333-2.837333 6.186667-5.589333 8.896l-1.002667 0.96c-1.472 1.322667-2.709333 2.133333-3.072 1.962666l-3.669333-1.898666-1.92-1.024c-5.397333-2.944-10.794667-6.528-12.117334-10.965334-3.562667-12.117333-6.4-24.448-9.109333-37.12l-4.608-22.058666a1296.832 1296.832 0 0 0-2.432-11.306667c-11.413333-1.856-17.024 4.352-21.290667 13.397333l-0.746666 1.685334a83.562667 83.562667 0 0 0-0.384 0.853333l-0.725334 1.749333-0.704 1.813334-1.408 3.712c-6.250667 16.768-13.312 33.621333-22.933333 48.597333-1.728 2.709333-5.824 3.925333-10.453333 4.8l-2.197334 0.362667-5.546666 0.874666a52.906667 52.906667 0 0 0-5.226667 1.088c0.448-1.557333 0.853333-3.178667 1.194667-4.8l0.704-3.264c1.066667-4.864 2.218667-9.706667 4.693333-13.738666 1.621333-2.645333 3.413333-5.205333 5.290667-7.744l4.202666-5.696c3.264-4.48 6.378667-9.109333 8.618667-14.378667-22.954667 0.789333-34.88 12.373333-44.202667 29.44l-1.28 2.346667-0.597333 1.216-1.237333 2.453333c-7.68 15.829333-17.536 30.634667-27.669334 45.269333l-10.133333 14.592-2.496 3.648c-3.477333 5.098667-9.706667 10.090667-15.530667 11.434667l-2.218666 0.490667-2.325334 0.490666a118.912 118.912 0 0 1-1.173333 0.213334l-2.410667 0.448c-7.210667 1.194667-14.762667 1.536-19.541333-1.493334-4.650667-2.944-6.272-18.730667-2.645333-24.981333l2.517333-4.309333c8.917333-15.061333 19.114667-30.357333 32.426667-40.896l2.645333-2.069334 6.08-4.650666 1.706667-1.301334 3.157333-2.538666 1.536-1.28 1.493333-1.28 1.429334-1.28 1.386666-1.322667c9.728-9.493333 14.933333-20.672 7.04-39.850667-1.365333-3.328 0.96-8.149333 4.117334-13.312l1.834666-2.922666 3.157334-4.906667 1.173333-1.92c0.768-1.28 1.472-2.56 2.048-3.754667l10.048 12.458667 4.992 6.272 4.864 6.272 9.685333 12.586667a126.293333 126.293333 0 0 1 4.266667-4.266667l2.901333-2.837333c3.904-3.754667 7.68-7.594667 10.389334-12.053334 8.192-13.44 15.957333-27.093333 23.786666-41.066666l9.472-16.853334 4.821334-8.533333c-9.429333-8.405333-19.093333-7.68-28.565334-4.522667l-1.877333 0.682667-0.96 0.341333-1.877333 0.746667-1.877334 0.789333-2.773333 1.216a186.816 186.816 0 0 0-11.733333 5.781334l-7.701334 4.117333c-5.12 2.730667-10.304 5.397333-15.658666 7.616-2.752 1.130667-6.08 0.853333-9.472 0.384l-3.413334-0.490667a40.597333 40.597333 0 0 0-3.349333-0.32 34.986667 34.986667 0 0 0 0.085333-3.776l-0.085333-2.986666c-0.106667-3.648 0-7.104 1.770667-8.917334l5.504-5.610666 13.717333-14.208 5.546667-5.674667c12.010667-12.181333 24.405333-23.893333 38.229333-33.621333 21.461333-15.082667 34.794667-5.077333 38.272 20.885333z m89.898667 93.653333c0.469333 1.28 1.066667 2.602667 1.749333 3.968l2.026667 4.032 0.810666 1.685334c1.536 3.328 2.56 6.464 1.642667 8.832-6.869333 17.429333 0.682667 26.752 15.509333 32.128 5.632 2.026667 11.370667 3.733333 17.130667 5.354666l11.562667 3.2c5.76 1.621333 11.52 3.306667 17.130666 5.333334 4.544 1.664 8.704 4.288 12.821334 7.061333l5.290666 3.605333c1.194667 0.789333 2.368 1.557333 3.562667 2.282667l-9.301333 4.906667c-4.650667 2.474667-9.322667 4.906667-14.08 7.189333a6.826667 6.826667 0 0 1-3.456 0.341333l-1.536-0.149333a16.576 16.576 0 0 0-1.493334-0.085333l-1.493333 3.605333c-17.066667-7.530667-34.218667-14.826667-51.114667-22.656a240.917333 240.917333 0 0 1-10.432-5.184l-10.282666-5.44c-1.706667-0.917333-3.434667-1.792-5.184-2.666667l-6.826667-3.328-1.557333-0.810666a54.442667 54.442667 0 0 1-0.768-0.426667l-1.493334-0.853333c-10.688-6.528-16.938667-16-7.573333-27.306667 5.162667-6.250667 12.48-10.794667 20.138667-15.018667l3.306666-1.792 3.541334-1.92c3.541333-1.877333 7.04-3.818667 10.368-5.909333z m-275.328-35.264c0.512 1.898667 1.194667 3.84 1.92 5.845334l0.917333 2.389333 2.368 6.037333 0.917333 2.389334c2.304 6.336 3.84 12.330667 1.877334 16.853333-2.986667 6.890667-8.746667 12.608-15.061334 18.112l-2.730666 2.346667-5.504 4.650666a133.44 133.44 0 0 0-6.613334 5.952l-6.229333-5.376 21.333333-58.154666 6.826667-1.045334z m9.770666-56l8.704 0.512 14.933334 45.866667-10.709334 6.890667a180.586667 180.586667 0 0 0-4.544-5.418667l-6.229333-7.146667c-5.162667-5.973333-10.005333-12.053333-13.098667-18.944-1.066667-2.389333 0.768-6.08 3.328-10.090666l1.066667-1.621334 1.685333-2.453333 1.173334-1.749333a68.48 68.48 0 0 0 3.690666-5.845334zM1312.597333 726.165333h-4.906666c-1.045333-9.728-3.818667-16.810667-8.32-21.205333-4.501333-4.394667-11.114667-6.933333-19.84-7.637333v87.189333c0 6.378667 1.237333 10.432 3.690666 12.16 1.642667 1.152 5.546667 1.962667 11.690667 2.432v4.864h-56.106667v-4.864c6.037333-0.469333 9.877333-1.322667 11.52-2.602667 2.453333-1.728 3.690667-5.738667 3.690667-11.989333v-87.189333c-8.810667 0.704-15.488 3.242667-19.989333 7.637333-4.608 4.394667-7.466667 11.477333-8.618667 21.205333h-4.757333l0.149333-34.922666h91.648l0.149333 34.922666z m91.626667 21.696c0-13.077333-1.728-24.32-5.226667-33.706666-4.821333-12.842667-12.181333-19.264-22.122666-19.264-9.962667 0-17.344 6.421333-22.144 19.285333-3.498667 9.386667-5.226667 20.608-5.226667 33.706667 0 13.653333 1.621333 24.874667 4.906667 33.685333 4.608 12.373333 12.096 18.56 22.464 18.56 10.026667 0 17.408-6.229333 22.122666-18.752 3.498667-9.130667 5.226667-20.309333 5.226667-33.493333m26.154667 0.682666c0 17.6-5.034667 31.658667-15.082667 42.197334-9.941333 10.432-22.741333 15.637333-38.421333 15.637333-16 0-28.906667-5.205333-38.762667-15.637333-9.834667-10.410667-14.762667-24.533333-14.762667-42.368 0-18.304 4.778667-32.768 14.293334-43.434667 9.557333-10.752 22.4-16.149333 38.613333-16.149333 16.298667 0 29.418667 5.397333 39.36 16.149333 9.834667 10.773333 14.762667 25.301333 14.762667 43.605333m111.914666-52.266666c-4.394667 0.554667-7.36 1.493333-8.896 2.773333-1.962667 1.706667-2.922667 4.970667-2.922666 9.706667v95.189333h-5.077334l-64.128-86.656v66.688c0 5.333333 1.28 8.789333 3.84 10.410667 1.450667 1.066667 4.885333 1.92 10.304 2.602666v4.864h-34.282666v-4.864c4.821333-0.682667 8-1.621333 9.536-2.773333 2.346667-1.856 3.541333-5.205333 3.541333-10.069333v-76.245334c-4.309333-7.658667-8.533333-11.477333-12.608-11.477333v-5.205333h31.829333l50.133334 67.050666v-46.549333c0-5.674667-1.045333-9.557333-3.093334-11.648-2.133333-2.197333-5.738667-3.456-10.752-3.818667v-5.034666h32.576v5.034666z m120.106667 63.36c-5.44 0.469333-8.981333 1.472-10.624 2.986666-1.941333 1.962667-2.922667 5.845333-2.922667 11.626667v21.696c-4.096 3.264-10.346667 5.866667-18.773333 7.829333a89.088 89.088 0 0 1-20.266667 2.602667c-16.618667 0-29.930667-4.736-39.978666-14.250667-10.88-10.176-16.298667-24.426667-16.298667-42.709333 0-18.197333 5.12-32.853333 15.36-43.946667 10.368-11.114667 23.637333-16.682667 39.829333-16.682666 5.44 0 11.221333 1.344 17.386667 3.989333 6.250667 2.666667 9.877333 4.010667 10.901333 4.010667 3.072 0 5.226667-2.496 6.464-7.466667h4.778667v39.936h-4.48a64 64 0 0 0-12.757333-23.104c-6.656-7.509333-13.738667-11.285333-21.205334-11.285333-10.56 0-18.304 6.421333-23.232 19.285333-3.584 9.386667-5.376 21.013333-5.376 34.901333 0 13.098667 2.090667 24.256 6.293334 33.514667 5.44 11.712 13.397333 17.557333 23.850666 17.557333 9.514667 0 14.293333-3.2 14.293334-9.557333v-16.682667c0-5.205333-1.173333-8.853333-3.541334-10.922666-2.453333-2.090667-6.101333-3.2-10.922666-3.306667v-4.864h51.2v4.864z m86.549333-63.552c-5.632 0.341333-9.28 1.216-10.901333 2.602666-2.154667 1.749333-3.242667 5.632-3.242667 11.648v58.88c0 13.312-2.816 22.826667-8.448 28.48-5.546667 5.781333-14.250667 8.682667-26.154666 8.682667-7.36 0-13.418667-2.026667-18.133334-6.08-5.632-4.864-8.448-10.709333-8.448-17.536 0-3.946667 1.024-7.125333 3.072-9.557333a10.133333 10.133333 0 0 1 8.149334-3.648 10.88 10.88 0 0 1 8.298666 3.626666c2.133333 2.453333 3.221333 5.525333 3.221334 9.216a14.506667 14.506667 0 0 1-2.773334 8c-1.834667 2.901333-2.773333 4.458667-2.773333 4.693334 0 1.621333 1.088 2.901333 3.242667 3.818666a11.029333 11.029333 0 0 0 4.906666 1.216c6.570667 0 9.856-4.8 9.856-14.421333v-78.677333c0-4.864-1.706667-8.042667-5.077333-9.557334-1.834667-0.810667-5.376-1.28-10.602667-1.386666v-5.034667h55.808v5.034667z m55.210667 107.861333h-45.973333v-4.864c4.202667-0.469333 7.018667-1.28 8.448-2.432 2.133333-1.621333 3.221333-4.565333 3.221333-8.853333v-80.426667c0-4.629333-0.96-7.68-2.922667-9.194667-1.322667-1.066667-4.266667-1.685333-8.746666-1.92v-5.034666h45.973333v5.034666c-4.522667 0.128-7.445333 0.746667-8.768 1.92-1.941333 1.386667-2.922667 4.458667-2.922667 9.194667v80.426667c0 4.736 0.981333 7.872 2.922667 9.386666 1.216 0.917333 4.16 1.557333 8.746667 1.92v4.842667z m183.253333-108.032c-4.224 0.576-7.210667 2.026667-8.96 4.330667-1.770667 2.346667-2.645333 5.866667-2.645333 10.602666v51.242667c0 29.525333-12.501333 44.288-37.504 44.288-27.264 0-40.896-13.44-40.896-40.298667v-54.890666c0-5.44-0.981333-9.194667-2.944-11.285334-1.856-2.069333-5.269333-3.413333-10.24-3.989333v-4.864h52.224v4.864c-5.568-0.106667-9.493333 0.853333-11.776 2.944-2.261333 2.090667-3.413333 6.186667-3.413333 12.330667v54.72c0 21.077333 7.189333 31.616 21.546666 31.616 17.344 0 26.026667-11.818667 26.026667-35.434667v-50.730667c0-5.76-1.237333-9.770667-3.712-11.968-2.069333-1.962667-5.781333-3.136-11.157333-3.477333v-4.864h33.472v4.864z m112.96 0.341333c-4.437333 0.576-7.424 1.493333-8.96 2.773334-1.984 1.749333-2.965333 4.992-2.965333 9.728v95.189333h-5.12l-64.597333-86.656v66.688c0 5.333333 1.28 8.789333 3.882666 10.410667 1.450667 1.066667 4.906667 1.92 10.368 2.602666v4.864h-34.56v-4.864c4.864-0.682667 8.064-1.621333 9.621334-2.773333 2.368-1.856 3.562667-5.205333 3.562666-10.069333v-76.245334c-4.330667-7.658667-8.576-11.477333-12.714666-11.477333v-5.205333h32.085333l50.517333 67.050666v-46.549333c0-5.674667-1.045333-9.557333-3.114666-11.648-2.154667-2.197333-5.781333-3.456-10.837334-3.818667v-5.034666h32.853334v5.034666z m57.344 107.690667h-46.314666v-4.864c4.224-0.469333 7.061333-1.28 8.533333-2.432 2.133333-1.621333 3.242667-4.565333 3.242667-8.853333v-80.426667c0-4.629333-0.981333-7.68-2.944-9.194667-1.344-1.066667-4.288-1.685333-8.832-1.92v-5.034666h46.314666v5.034666c-4.544 0.128-7.466667 0.746667-8.832 1.92-1.962667 1.386667-2.944 4.458667-2.944 9.194667v80.426667c0 4.736 0.981333 7.872 2.944 9.386666 1.237333 0.917333 4.181333 1.557333 8.832 1.92v4.842667z m114.197334-107.861333c-3.925333 0.341333-6.869333 1.685333-8.810667 3.989333-1.344 1.621333-2.858667 4.757333-4.501333 9.386667l-33.770667 94.997333h-3.264l-39.509333-96.917333c-1.749333-4.266667-3.349333-7.104-4.8-8.490667-1.557333-1.28-4.394667-2.261333-8.533334-2.965333v-4.864h52.053334v4.864c-4.629333 0.341333-7.466667 0.64-8.512 0.853333-3.626667 0.938667-5.418667 2.773333-5.418667 5.568 0 1.621333 0.981333 4.992 2.944 10.069333l21.226667 54.549334 19.050666-54.890667c1.557333-4.501333 2.346667-7.530667 2.346667-9.024 0-3.136-1.621333-5.162667-4.821333-6.08a45.696 45.696 0 0 0-8.042667-0.853333v-5.056h32.362667v4.864z m105.685333 72.256l-6.357333 35.605333h-88.32v-4.864c5.077333-0.469333 8.384-1.088 9.92-1.92 2.794667-1.6 4.181333-4.8 4.181333-9.536v-80.085333c0-4.629333-1.450667-7.808-4.330667-9.536-1.856-1.066667-5.12-1.685333-9.749333-1.92v-4.864h87.530667v34.56h-4.650667c-1.642667-11.925333-5.546667-19.84-11.626667-23.786667-4.736-3.008-12.906667-4.522667-24.469333-4.522667-5.696 0-8.533333 2.389333-8.533333 7.125334v38.4c8.064 0 13.888-1.92 17.514666-5.76 3.52-3.818667 5.781333-10.24 6.826667-19.264h4.330667v57.152h-4.330667c-0.853333-9.28-2.986667-15.872-6.506667-19.818667-3.626667-3.925333-9.557333-5.909333-17.834666-5.909333v40.128c0 3.84 1.450667 6.314667 4.352 7.466666 1.642667 0.704 4.48 1.066667 8.533333 1.066667 18.474667 0 31.381333-9.92 38.72-29.717333h4.8z m78.4-47.424c0-15.616-6.506667-23.445333-19.52-23.445334-6.293333 0-9.450667 2.261333-9.450667 6.784v41.322667c9.706667-0.106667 16.576-1.493333 20.608-4.16 5.568-3.584 8.362667-10.432 8.362667-20.48z m37.973333 83.029333h-21.546666c-6.506667 0-11.157333-2.368-13.952-7.125333L2432 751.68h-4.949333v32.853333c0 5.888 1.066667 9.770667 3.264 11.626667 1.536 1.28 5.162667 2.24 10.837333 2.944v4.864h-52.522667v-4.864c5.589333-0.704 9.173333-1.792 10.837334-3.306667 2.176-1.962667 3.264-5.909333 3.264-11.797333v-73.472c0-5.674667-1.130667-9.493333-3.413334-11.477333-1.749333-1.493333-5.333333-2.474667-10.666666-2.944v-4.864h50.496c11.349333 0 20.608 1.792 27.733333 5.397333 9.813333 4.842667 14.72 12.842667 14.72 23.957333 0 14.72-7.893333 24.32-23.722667 28.842667l28.992 46.186667c1.429333 2.325333 3.797333 3.413333 7.125334 3.306666v5.034667z m88.149334-29.525333c0 21.312-13.866667 31.957333-41.664 31.957333-4.864 0-10.24-0.938667-16.128-2.773333a135.125333 135.125333 0 0 0-9.28-2.965334c-2.496 0-3.84 1.92-4.053334 5.738667h-5.098666v-42.389333h5.12c1.536 11.349333 4.330667 19.861333 8.362666 25.536 4.864 7.061333 12.032 10.602667 21.546667 10.602666 5.248 0 9.898667-1.493333 13.930667-4.522666a16.128 16.128 0 0 0 6.656-13.546667 16.213333 16.213333 0 0 0-5.269334-11.797333 60.053333 60.053333 0 0 0-10.517333-7.125334c-13.653333-7.893333-22.208-13.226667-25.728-16-10.026667-8.106667-15.018667-16.725333-15.018667-25.856 0-12.522667 3.306667-21.312 9.898667-26.410666 5.482667-4.053333 14.101333-6.08 25.877333-6.08 4.757333 0 9.962667 0.853333 15.658667 2.602666 5.76 1.856 9.088 2.773333 9.92 2.773334 2.56 0 4.053333-1.834667 4.48-5.546667h5.12v37.333333h-4.8a41.642667 41.642667 0 0 0-10.688-21.696c-5.589333-6.037333-12.202667-9.045333-19.84-9.045333a16.533333 16.533333 0 0 0-11.456 4.693333 15.146667 15.146667 0 0 0-5.12 11.648c0 7.509333 5.12 13.888 15.338667 19.093334l23.701333 12.16c12.714667 6.485333 19.050667 17.024 19.050667 31.616m57.344 29.525333h-46.336v-4.864c4.266667-0.469333 7.082667-1.28 8.533333-2.432 2.176-1.621333 3.242667-4.565333 3.242667-8.853333v-80.426667c0-4.629333-0.981333-7.68-2.922667-9.194667-1.344-1.066667-4.309333-1.685333-8.853333-1.92v-5.034666h46.336v5.034666c-4.544 0.128-7.488 0.746667-8.832 1.92-1.962667 1.386667-2.944 4.458667-2.944 9.194667v80.426667c0 4.736 0.981333 7.872 2.944 9.386666 1.237333 0.917333 4.181333 1.557333 8.832 1.92v4.842667z m103.658666-77.802667h-4.949333c-1.045333-9.728-3.84-16.810667-8.384-21.205333-4.544-4.394667-11.2-6.933333-19.968-7.637333v87.189333c0 6.378667 1.237333 10.432 3.712 12.16 1.642667 1.152 5.568 1.962667 11.776 2.432v4.864h-56.554667v-4.864c6.101333-0.469333 9.962667-1.322667 11.626667-2.602667 2.474667-1.728 3.712-5.738667 3.712-11.989333v-87.189333c-8.874667 0.704-15.594667 3.242667-20.138667 7.637333-4.650667 4.394667-7.552 11.477333-8.682666 21.205333h-4.8l0.149333-34.922666h92.352l0.149333 34.922666z m114.517334-29.717333c-5.184 0.810667-8.64 2.837333-10.389334 6.08l-28.970666 53.504v30.208c0 5.696 1.344 9.28 4.032 10.773333 0.917333 0.597333 4.48 1.28 10.666666 2.090667v4.864h-53.76v-4.864c5.909333-0.810667 9.472-1.557333 10.709334-2.261333 2.688-1.621333 4.032-5.141333 4.032-10.602667V760.533333l-26.816-55.402666a14.357333 14.357333 0 0 0-13.013334-8.682667v-5.205333h53.461334v5.397333h-3.264c-5.888 0-8.832 1.557333-8.832 4.693333 0 1.28 1.194667 4.330667 3.562666 9.173334l17.066667 35.093333 16.106667-29.866667c3.093333-5.781333 4.629333-9.834667 4.629333-12.16 0-2.986667-1.6-5.034667-4.8-6.08a39.424 39.424 0 0 0-8.213333-1.045333v-5.205333h33.792v5.205333zM514.496 21.376c33.642667 0.618667 67.029333 4.48 99.968 12.032a472.106667 472.106667 0 0 1 120.661333 45.738667c27.584 15.018667 54.272 31.637333 77.738667 52.778666 15.488 13.952 31.402667 27.584 45.696 42.709334a451.477333 451.477333 0 0 1 64.64 87.125333c18.858667 33.173333 34.858667 67.626667 44.522667 104.576 6.613333 25.258667 12.693333 50.88 16.064 76.736 3.562667 27.498667 5.504 55.466667 4.864 83.178667a469.717333 469.717333 0 0 1-20.117334 124.202666c-10.026667 33.514667-22.741333 65.962667-40.384 95.978667-15.018667 25.536-32.426667 49.813333-50.133333 73.642667a376.170667 376.170667 0 0 1-38.656 43.584 469.888 469.888 0 0 1-102.421333 76.48 491.946667 491.946667 0 0 1-83.882667 36.757333c-28.288 9.301333-57.024 16.554667-86.762667 19.456-20.928 2.048-41.856 4.202667-62.784 6.314667-63.402667-2.218667-124.437333-13.589333-183.104-37.802667-40.981333-16.917333-79.701333-37.973333-113.386666-66.517333-25.493333-21.589333-48.576-46.208-71.381334-70.741334-27.776-29.866667-48.426667-64.853333-66.176-101.397333-19.946667-41.045333-34.346667-83.989333-40.768-129.237333a744.832 744.832 0 0 1-6.442666-64.128c-1.066667-19.626667-1.386667-39.424 0.042666-59.008 2.346667-32.32 8.32-64.192 17.194667-95.424a486.250667 486.250667 0 0 1 39.466667-98.197334c16.554667-30.762667 35.306667-60.074667 58.730666-86.186666 10.645333-11.904 20.8-24.32 32.298667-35.285334a494.229333 494.229333 0 0 1 93.141333-70.336c33.301333-19.349333 67.946667-35.392 104.938667-46.314666 29.12-8.618667 58.56-15.530667 88.938667-17.664 19.136-1.344 38.357333-3.413333 57.493333-3.050667z m-0.256 21.077333c-28.586667-0.021333-57.258667 3.114667-85.717333 6.506667-13.973333 1.664-27.52 7.104-41.28 10.837333l9.984 7.978667-1.344 1.962667 10.048-1.024-8.874667 21.248 2.944 1.642666 14.186667-15.36 2.432 1.365334-5.504 12.416c2.858667 2.624 7.104 5.845333 10.453333 9.856 1.493333 1.813333 1.130667 5.12 1.642667 7.765333-2.304-0.384-5.568 0.042667-6.741334-1.301333-4.074667-4.778667-7.445333-10.176-11.882666-16.469334-4.8 9.6 3.093333 21.482667-6.933334 28.373334-9.066667-4.16 2.176-9.941333-2.986666-16.490667-1.813333 5.333333-3.541333 9.472-4.565334 13.76-1.728 7.210667-2.282667 14.762667-4.821333 21.632-1.194667 3.2-5.845333 5.098667-9.173333 7.765333-5.866667-9.514667-4.138667-16.576 0.682666-22.976 3.968-5.290667 6.122667-10.026667 1.429334-16.170666-1.429333-1.877333-0.682667-5.397333-0.938667-8.170667l2.069333-1.237333c2.922667 2.453333 5.866667 4.906667 9.706667 8.170666 5.781333-8.064 0.810667-17.834667 5.333333-25.813333l-2.816-1.706667c-2.645333 2.282667-5.418667 4.416-7.893333 6.848-1.685333 1.685333-2.666667 4.138667-4.501333 5.568-1.194667 0.938667-3.797333 1.429333-4.906667 0.725334-1.109333-0.704-2.048-3.498667-1.493333-4.693334 0.426667-1.024 0.832-2.048 1.216-3.093333l2.261333-6.336c2.282667-6.314667 4.970667-12.416 11.221333-16.469333l-0.042666 0.042666c-2.56 0.256-5.290667 0.170667-7.850667 0.618667l-2.496 0.64-29.397333 10.56c-9.770667 3.605333-19.477333 7.338667-29.013334 11.498667-42.517333 18.581333-81.770667 43.072-116.032 74.176a546.282667 546.282667 0 0 0-65.237333 70.144c-33.536 43.456-57.941333 92.16-74.133333 144.853333-10.581333 34.453333-17.984 69.610667-19.797334 105.322667-1.578667 30.698667 1.002667 61.674667 2.88 92.48 1.941333 31.616 10.005333 62.250667 19.946667 92.138666a455.744 455.744 0 0 0 38.016 84.736c16.32 28.16 34.730667 54.826667 56.597333 78.805334 14.805333 16.213333 31.210667 31.04 47.402667 45.930666 25.408 23.36 54.144 42.133333 84.693333 58.005334 27.114667 14.08 55.445333 25.109333 84.928 33.365333 36.352 10.197333 73.344 16.362667 110.997334 17.173333 21.333333 0.426667 42.709333-1.664 64.064-3.008 29.802667-1.92 58.538667-9.237333 87.04-17.728 31.210667-9.301333 60.650667-22.506667 88.938666-38.506666a442.944 442.944 0 0 0 84.288-61.504c31.274667-29.141333 59.648-61.013333 81.493334-97.877334a697.066667 697.066667 0 0 0 37.184-71.850666c13.994667-31.488 24-64.469333 28.288-98.858667 2.944-23.424 7.04-46.869333 7.488-70.357333 0.469333-24.917333-1.621333-50.069333-4.8-74.837334a494.933333 494.933333 0 0 0-13.76-69.866666c-11.157333-40.042667-28.288-77.781333-49.877334-113.365334-5.077333-8.341333-10.922667-16.213333-15.829333-23.424l-1.450667 1.301334-2.730666 2.730666c-1.706667 1.706667-3.221333 3.050667-4.48 2.837334-8.362667-1.322667-17.493333 6.293333-25.28-2.048-0.768-0.832-3.626667 0.32-6.528 0.661333l19.52 24.170667c-8.448 7.616-13.290667 1.344-18.901334-2.389334 3.925333-8.661333-2.154667-13.013333-7.104-17.792-4.053333-3.904-8.448-7.488-12.288-11.584-5.973333-6.378667-10.88-14.357333-21.845333-10.176-1.664 0.64-3.946667-0.32-5.952-0.533333l-1.002667-2.176c4.224-3.157333 8.362667-6.464 12.736-9.429333 9.514667-6.485333 10.112-6.336 16.725334 3.306666 8.448-5.418667 14.058667-16.746667 27.584-14.933333l-2.816 6.272c2.816 1.557333 7.317333 2.496 8.106666 4.736 3.733333 10.453333 6.890667 13.802667 17.621334 15.061333-20.693333-30.613333-46.4-55.808-73.706667-79.573333-24.213333-21.034667-50.922667-38.4-79.232-53.269333-35.136-18.474667-71.893333-32.768-110.762667-41.728-32.128-7.381333-64.704-11.797333-97.429333-11.861334zM470.058667 886.4c12.586667-3.072 14.933333-1.984 23.381333 9.557333 8.682667 11.882667 17.749333 23.488 26.688 35.2 0.789333 1.024 1.941333 1.770667 4.309333 3.925334 0-15.04 0.298667-28.693333-0.32-42.325334-0.085333-2.090667-4.48-4.010667-8.362666-7.253333l22.762666 1.706667c-5.482667 1.770667-7.914667 4.949333-7.829333 10.944 0.298667 18.858667 0.128 37.76-1.578667 57.216-16.853333-15.424-28.736-34.154667-43.413333-52.138667-0.853333 13.76-1.621333 26.112-2.346667 38.485333-0.32 5.824 1.429333 10.432 10.026667 12.096h-22.506667c7.274667-2.346667 7.829333-7.573333 7.872-13.226666v-3.776c0.213333-12.672 1.770667-25.408 0.768-37.973334-0.341333-4.522667-6.4-8.618667-9.450666-12.437333z m111.68-9.002667c-6.997333 3.733333-7.082667 8.853333-5.333334 16.064 3.925333 16.042667 6.677333 32.341333 9.962667 48.853334l8.917333 0.789333 0.277334 1.664-27.349334 5.973333c7.445333-3.477333 7.146667-8.789333 5.973334-14.250666l-0.789334-3.285334-0.362666-1.642666c-2.474667-12.010667-5.589333-23.893333-7.36-36.010667-1.024-7.04-3.2-11.242667-11.2-12.16l27.264-5.994667z m-195.754667-8.256l24.789333 6.101334c-2.794667 3.392-7.296 6.549333-8.469333 10.666666-3.626667 12.8-6.357333 25.856-8.789333 38.933334-1.834667 9.856 9.770667 19.029333 21.013333 17.237333 7.701333-1.216 13.248-4.394667 15.104-12.928 2.794667-12.992 6.784-25.728 9.301333-38.762667 0.533333-2.752-3.050667-6.293333-4.949333-9.834666l19.733333 4.48c-6.72 1.301333-8.746667 5.226667-9.92 11.306666-2.090667 10.922667-5.248 21.674667-8.021333 32.490667-4.096 16.106667-19.456 22.250667-36.586667 15.722667-15.936-6.058667-17.216-16.96-14.634666-29.610667 2.026667-9.877333 5.248-19.52 7.04-29.44 1.066667-5.717333 2.496-12.586667-6.997334-14.634667z m281.770667-19.690666c-7.189333 25.728-4.096 52.053333-6.677334 78.976-2.133333-1.130667-4.288-1.664-5.546666-3.029334-13.973333-15.36-27.669333-30.997333-41.856-46.165333-2.432-2.581333-6.826667-3.306667-10.986667-5.184l25.557333-9.813333c-8.085333 6.378667-4.16 10.730667 1.109334 16.064 8.96 9.066667 17.216 18.858667 27.050666 29.781333 0.874667-15.893333 1.514667-29.354667 2.410667-42.837333 0.426667-6.272-2.048-9.770667-10.602667-10.176l19.541334-7.616z m-362.197334-20.032l24 13.141333c-8.576-2.624-11.136 3.050667-14.208 8.64-6.272 11.456-13.013333 22.677333-19.370666 34.090667-5.226667 9.386667-5.098667 9.450667 1.002666 18.261333l-24.789333-13.589333c10.837333 2.581333 12.778667-6.506667 16.149333-12.010667 6.805333-11.136 12.373333-23.04 18.986667-34.282667 3.242667-5.546667 2.325333-9.386667-1.770667-14.250666z m417.6-17.728l8.384 12.416c-0.533333 0.234667-1.088 0.725333-1.429333 0.597333-3.84-1.429333-8.576-5.12-11.370667-4.010667-6.293333 2.517333-11.946667 7.082667-17.152 11.605334-1.152 0.981333-0.426667 6.378667 1.152 7.829333 4.693333 4.266667 3.626667 15.082667 12.266667 13.696 10.069333-1.621333 14.656-9.877333 14.997333-20.906667l12.416 18.304c-11.264-7.04-17.578667 2.133333-24.853333 6.570667-0.896 0.533333-1.152 3.861333-0.384 5.12 3.498667 5.674667 7.232 11.285333 11.413333 16.469333 1.237333 1.557333 5.077333 3.008 6.293334 2.24 5.418667-3.413333 11.584-6.762667 15.04-11.818666 3.328-4.864 3.669333-11.776 5.162666-17.258667 7.68 9.450667 6.698667 16.064-3.712 23.125333-11.221333 7.594667-22.272 15.445333-34.410666 22.805334 6.464-6.250667 3.882667-11.178667-0.277334-16.938667-7.68-10.602667-14.72-21.653333-21.653333-32.746667-3.562667-5.738667-7.168-10.112-14.762667-7.68 6.912-4.970667 13.738667-10.048 20.757334-14.848 7.04-4.842667 14.250667-9.408 22.122666-14.570666zM352.085333 99.584c11.306667 2.346667 12.16 8.64 3.136 19.669333 14.442667 18.325333 12.010667 42.154667 19.136 61.589334 22.570667-5.909333 45.056-12.586667 67.925334-17.578667 29.354667-6.464 59.029333-7.722667 89.237333-5.354667 32.341333 2.56 63.509333 9.109333 93.952 19.84a330.624 330.624 0 0 1 93.184 51.242667c46.101333 35.84 81.536 80.256 105.194667 133.717333a363.946667 363.946667 0 0 1 26.602666 88.661334c4.437333 26.922667 6.037333 53.909333 4.053334 80.768-1.728 23.573333-6.613333 47.082667-11.925334 70.229333-9.642667 42.24-29.461333 79.957333-54.250666 115.328-17.024 24.298667-37.696 45.077333-59.925334 64.533333a326.72 326.72 0 0 1-69.312 46.250667c-31.957333 16-65.685333 26.453333-101.013333 32.661333a303.466667 303.466667 0 0 1-71.914667 4.288 353.664 353.664 0 0 1-118.208-27.733333 351.786667 351.786667 0 0 1-82.218666-49.728 334.912 334.912 0 0 1-60.821334-63.445333c-23.978667-32.917333-43.136-68.309333-53.973333-107.605334-5.696-20.757333-9.642667-42.090667-12.949333-63.381333-2.389333-15.402667-3.626667-31.168-3.264-46.72a363.264 363.264 0 0 1 60.224-192.64 348.970667 348.970667 0 0 1 118.976-111.552c11.306667-6.464 23.061333-12.138667 33.685333-17.685333-11.498667-27.157333-11.754667-56.341333-15.530667-85.333334zM267.562667 801.493333l22.250666 17.557334-0.384 2.496c-7.893333-6.293333-11.370667-1.92-15.701333 3.84-8.021333 10.752-16.746667 21.034667-25.877333 30.869333-7.338667 7.893333-20.48 6.357333-25.621334-2.666667-1.258667-2.176-0.661333-5.888 0.213334-8.533333 0.362667-1.088 4.565333-2.346667 5.397333-1.621333 1.706667 1.493333 2.709333 4.117333 3.242667 6.464 0.512 2.282667 0.106667 4.778667 0.106666 7.189333l2.453334 1.237333c6.08-7.296 12.288-14.506667 18.218666-21.909333 5.013333-6.250667 9.322667-13.098667 14.656-19.050667 4.714667-5.269333 4.586667-9.685333-0.426666-14.528l1.493333-1.344zM633.813333 196.266667c-49.92-20.16-101.504-28.544-155.370666-23.722667-29.290667 2.624-57.642667 8.533333-85.226667 18.346667-44.906667 16-84.352 40.96-118.677333 73.749333a332.16 332.16 0 0 0-55.445334 69.909333c-18.261333 30.485333-32.213333 62.890667-40.021333 97.493334-7.146667 31.530667-10.88 63.445333-8.746667 96.128 1.856 28.778667 5.909333 56.96 14.314667 84.416 15.786667 51.498667 42.026667 97.408 79.552 135.914666 17.792 18.261333 38.784 33.706667 59.562667 48.704 25.322667 18.282667 54.058667 30.058667 83.84 39.509334a304.853333 304.853333 0 0 0 79.637333 14.144c19.84 0.853333 39.893333-1.216 59.776-2.986667 36.138667-3.264 70.08-14.72 102.357333-30.656 38.890667-19.2 73.066667-44.8 102.144-77.226667 24.362667-27.178667 44.373333-56.917333 59.157334-90.346666 19.861333-45.013333 29.653333-92.032 30.528-141.184-0.768-9.130667-1.834667-18.261333-2.24-27.434667-1.045333-23.68-6.464-46.442667-12.842667-69.205333-15.104-54.101333-43.008-100.864-81.770667-140.949334a318.698667 318.698667 0 0 0-110.528-74.602666z m139.989334 574.08c5.76-2.709333 12.736-1.706667 17.962666 3.690666 4.842667 5.013333 7.594667 10.24 4.352 17.258667-0.874667 1.877333-1.194667 4.010667-2.005333 6.890667 2.410667 0.277333 4.778667 0.704 7.146667 1.152l7.104 1.429333c9.408 1.834667 18.773333 2.986667 28.672-2.133333-5.930667 11.605333-12.032 14.976-22.528 13.013333-7.850667-1.450667-15.637333-3.349333-23.530667-4.501333-2.325333-0.341333-4.906667 1.173333-7.402667 1.856 0.853333 2.282667 1.237333 4.906667 2.645334 6.784 2.090667 2.794667 5.013333 4.970667 7.381333 7.594666 4.522667 4.992 9.002667 9.685333 16.362667 3.498667l-20.352 18.624c6.4-9.066667-2.688-14.208-8.704-20.373333-7.04-7.189333-14.357333-14.122667-21.333334-21.376-4.8-4.992-9.173333-10.602667-17.365333-3.925334 9.984-11.029333 18.304-23.210667 31.594667-29.482666z m-583.658667-20.416c24.021333-4.117333 32.576 1.130667 46.506667 28.586666l6.506666-0.917333-15.317333 17.130667-1.92-1.28c0.277333-1.066667 0.426667-2.197333 0.853333-3.242667 5.290667-13.354667 3.84-20.714667-5.76-28.8-7.872-6.613333-18.730667-7.274667-29.184-0.725333-12.224 7.68-20.373333 18.133333-19.584 33.664 0.362667 7.04 6.677333 16.384 13.376 18.517333 1.536 0.490667 3.882667 0.341333 5.12-0.533333 3.904-2.837333 7.616-5.973333 11.093334-9.301334 6.72-6.4 6.634667-6.485333 5.354666-15.914666l17.066667 20.608-0.853333 1.258666-7.189334-3.626666-22.08 17.685333c-20.906667-6.762667-32.554667-29.205333-31.36-40.874667 1.621333-15.594667 13.952-29.909333 27.370667-32.213333zM626.858667 270.293333c7.850667 2.176 16.512 2.922667 23.381333 6.826667 14.848 8.405333 29.482667 17.514667 42.88 28.053333 12.736 10.026667 24.618667 21.461333 35.392 33.6 1.493333 1.706667 3.029333 3.370667 4.544 5.034667l9.237333 10.026667c12.266667 13.44 24.106667 27.242667 31.189334 44.373333 4.864 11.733333 9.024 24.170667 10.581333 36.650667 1.066667 8.832-3.178667 18.24-4.309333 27.477333-1.493333 12.245333-1.386667 24.746667-3.626667 36.864a169.173333 169.173333 0 0 1-4.373333 17.706667l-5.418667 17.493333c-0.533333 1.770667-2.773333 3.050667-5.504 5.909333-0.917333-4.693333-2.154667-7.893333-2.090667-11.050666 0.298667-14.08 1.130667-28.117333 1.429334-42.197334a58.24 58.24 0 0 0-1.578667-12.672c-1.642667-8.064-7.850667-14.613333-12.16-11.904-4.266667 2.709333-8.192 8.661333-8.96 13.653334-2.090667 14.058667 1.92 27.626667 5.909333 41.088l23.594667 81.429333c3.797333 12.778667 3.370667 25.173333-0.213333 37.973333-5.461333 19.392-11.52 38.4-22.997334 55.210667-2.986667 4.416-6.016 8.96-9.792 12.672-16.917333 16.704-33.194667 34.24-51.52 49.28-13.248 10.88-28.949333 19.050667-44.330666 26.965333-10.24 5.269333-21.738667 8.128-32.789334 11.733334-5.397333 1.728-7.573333 4.757333-7.552 10.474666 0.042667 5.909333-0.725333 12.330667-8.256 13.610667-7.744 1.322667-9.429333-0.853333-7.765333-8.64l1.984-9.216c-9.898667 0-19.242667-0.170667-28.586667 0.042667-19.84 0.426667-39.68 1.130667-59.52 1.536-9.557333 0.213333-19.114667 0.277333-28.650666-0.064-4.992-0.170667-7.381333 1.472-8.277334 6.421333-0.789333 4.416-1.642667 9.322667-4.16 12.757333-1.664 2.261333-6.613333 3.605333-9.621333 3.008-4.373333-0.853333-3.477333-4.821333-2.304-8.448 4.906667-15.146667 3.626667-16.704-12.437333-16.917333-20.394667-0.256-39.893333-4.458667-58.090667-13.930667-13.504-7.04-26.986667-14.144-41.130667-21.546666-1.749333 3.52-2.645333 7.381333-5.056 9.514666-2.624 2.304-6.890667 4.544-10.026666 4.053334-5.077333-0.746667-3.584-5.504-2.432-8.96 1.237333-3.797333 2.901333-7.424 4.608-11.733334-4.949333-5.696-10.026667-11.904-15.466667-17.813333-22.208-24.149333-44.437333-48.448-60.437333-77.248a82.133333 82.133333 0 0 1-9.493334-55.125333c3.456-20.053333 5.034667-40.469333 6.869334-60.8 1.109333-12.373333 2.24-24.896 1.493333-37.248-1.258667-21.141333-4.693333-42.197333-5.802667-63.36a119.936 119.936 0 0 0-0.256-3.754667l-0.704-7.594667c-0.768-8.896-0.96-17.834667 3.754667-26.090666 3.626667-6.4 8.384-12.373333 13.568-17.621334 6.4-6.464 13.738667-12.074667 20.778667-17.92 12.864-10.645333 14.485333-23.530667 6.144-37.888-1.6-2.773333-2.922667-5.696-4.352-8.533333 6.058667-4.16 19.114667-2.624 26.496 2.986667 18.048 13.738667 16.426667 33.109333-3.84 48.213333-2.56 1.92-4.416 4.821333-6.570667 7.253333 3.072 1.706667 5.973333 4.309333 9.28 5.013334 16.213333 3.349333 26.005333 13.290667 30.101333 28.842666 0.810667 3.072-0.832 6.762667-1.344 10.154667-3.328-0.704-7.296-0.512-9.898666-2.304-10.410667-7.210667-21.12-11.242667-33.621334-6.037333-12.16 5.034667-15.36 9.941333-14.186666 22.656 0.789333 8.810667 2.368 17.536 3.093333 26.346666 1.322667 16.128 1.984 32.298667 3.456 48.405334 1.152 12.672-1.28 24.661333-4.224 36.608l-2.986667 11.946666-1.408 6.016c-2.986667 13.525333-5.973333 27.477333-5.802666 41.173334 0.298667 22.165333 13.866667 37.461333 31.509333 49.322666 1.322667 0.874667 3.84 0.426667 5.696 0.042667 12.245333-2.581333 24.448-5.312 37.610667-8.192-3.242667-2.261333-6.357333-5.12-9.984-6.826667-25.344-11.818667-36.629333-32.981333-40.426667-59.413333-4.053333-28.330667 2.581333-54.677333 14.570667-80.042667 1.216-2.581333 3.349333-4.842667 5.397333-6.912l44.522667-44.522666c8.832-8.917333 8.256-13.397333-2.133334-20.650667-2.197333-1.536-5.333333-2.986667-6.016-5.12-1.322667-4.138667-2.389333-9.088-1.237333-13.034667 0.597333-2.026667 6.229333-3.584 9.578667-3.584a17.002667 17.002667 0 0 1 16.682666 14.72c1.386667 8.661333 5.546667 11.562667 14.208 11.456a580.266667 580.266667 0 0 1 43.029334 1.536c6.08 0.362667 8.832 4.48 8.533333 10.581334-0.341333 6.464-5.354667 6.016-9.749333 7.253333-2.88 0.810667-6.698667 2.986667-7.552 5.418667-5.973333 17.386667-11.370667 34.986667-16.64 52.608-0.469333 1.664 0.725333 4.416 2.026666 5.909333 4.885333 5.76 2.986667 13.269333-3.797333 16.085333a10.026667 10.026667 0 0 0-5.12 5.866667 5563.456 5563.456 0 0 0-21.226667 81.173333c-0.768 3.072-0.085333 6.506667-0.085333 11.093334h25.941333c10.666667 0.021333 14.165333 2.474667 17.194667 12.928 1.770667 6.122667 2.986667 12.394667 4.245333 18.645333 1.152 5.845333 4.864 8.106667 10.410667 7.637333 4.8-0.405333 9.856-0.384 14.314667-1.92 6.912-2.346667 6.08-8.896 4.373333-13.781333-3.776-10.730667-7.808-21.546667-13.333333-31.445333-10.773333-19.306667-20.330667-39.253333-21.482667-61.354667-0.682667-12.714667 2.112-26.346667 6.506667-38.4 6.613333-18.261333 14.997333-36.053333 24.576-52.949333 7.210667-12.693333 17.706667-23.488 26.304-35.434667 6.122667-8.533333 2.986667-15.872-7.168-18.197333-3.136-0.725333-6.314667-1.130667-9.450667-1.770667-8.32-1.685333-12.074667-7.616-10.154667-15.957333 1.813333-7.850667 8.021333-10.538667 16.64-8.384 10.325333 2.602667 15.04 11.306667 19.818667 18.816 5.546667 8.789333 12.672 10.218667 21.333333 8.96 5.525333-0.810667 10.944-2.496 16.234667-4.266667 16.085333-5.290667 32.362667-4.885333 48.704-1.984a14.848 14.848 0 0 1 7.68 3.946667c3.114667 3.242667 3.477333 7.424-1.898667 8.576-14.506667 3.136-21.013333 12.48-24.384 26.346666-4.245333 17.301333-10.538667 34.090667-15.36 51.264-1.109333 3.946667-0.405333 8.597333 0.277334 12.8 1.066667 6.677333 1.706667 12.288-5.845334 16.448-2.773333 1.536-3.84 7.082667-4.736 11.008-5.034667 22.122667-9.770667 44.309333-14.613333 66.453334-2.432 11.029333 0.064 16.149333 9.429333 22.08 9.706667 6.144 19.349333 12.48 28.437334 19.477333 8.597333 6.634667 8.490667 17.450667 10.88 26.922667 1.92 7.488 3.2 15.146667 5.269333 22.570666 1.237333 4.544 3.818667 6.272 8.064 2.176 15.744-15.146667 18.986667-26.922667 3.776-43.626666-15.573333-17.130667-19.882667-37.333333-22.08-59.456-2.944-29.632 5.845333-55.936 18.581333-81.557334 8.810667-17.706667 18.389333-35.050667 27.392-52.693333 6.954667-13.653333 19.968-20.650667 31.488-29.269333 4.693333-3.477333 9.813333-6.4 15.210667-9.856-8.405333-8.021333-18.304-10.474667-28.48-12.330667-2.88-0.533333-6.314667-0.426667-8.469333-1.984-3.370667-2.432-8.021333-5.973333-8.213334-9.237333-0.32-5.973333 3.413333-11.818667 10.112-12.778667 10.453333-1.493333 20.586667 0.149333 28.501334 8.021333 5.354667 5.333333 10.666667 10.816 15.146666 16.874667 3.2 4.416 6.101333 5.248 10.581334 2.56 11.221333-6.741333 23.210667-5.888 35.2-2.986667 2.517333 0.597333 4.565333 3.136 6.826666 4.8-2.005333 2.24-3.712 5.994667-6.08 6.464-8.256 1.642667-11.2 7.701333-13.248 14.314667a1658.24 1658.24 0 0 0-16.128 55.253333c-0.704 2.581333 0.704 6.250667 2.176 8.832 3.242667 5.674667 3.904 11.925333-1.365333 15.296-10.773333 6.869333-10.410667 17.984-12.586667 28.032-3.498667 15.893333-5.866667 32.021333-9.173333 47.957334-1.344 6.314667 0.618667 8.810667 6.784 8.384 5.888-0.426667 11.797333-0.853333 17.685333-1.557334 6.549333-0.768 11.712 0.64 14.442667 7.381334 1.941333 4.8 4.309333 9.450667 8.042667 13.866666v-9.344c0-40.853333-0.277333-81.706667 0.170666-122.56 0.106667-10.944 1.493333-22.037333 3.797334-32.725333 4.437333-20.416 17.173333-35.541333 34.026666-47.125333 4.266667-2.944 5.12-5.013333 3.477334-9.728-8.682667-25.130667-22.72-47.146667-38.976-67.84-8.64-11.008-17.066667-22.485333-27.370667-31.744-11.434667-10.304-24.917333-18.389333-37.546667-27.392-2.709333-1.92-5.546667-3.712-8.32-5.546667l1.173334-3.114667z m148.352 508.714667c-7.253333-0.085333-12.373333 2.304-14.656 9.557333l16.938666 19.221334c7.402667-5.205333 11.648-10.88 9.578667-18.816-1.472-5.632-4.906667-9.898667-11.861333-9.962667z m48.576-75.584l17.706666 12.458667c-7.04 0-13.888-1.152-20.16 0.298666-7.296 1.664-10.624 9.536-8.832 16.789334 1.258667 5.098667 7.061333 7.232 13.312 4.48 5.653333-2.474667 11.008-5.610667 16.64-8.106667 3.626667-1.621333 7.445333-3.306667 11.306667-3.797333 11.434667-1.493333 16.533333 1.642667 20.245333 11.456 3.178667 8.448-1.216 20.288-9.386666 26.88-3.157333 2.56-5.461333 6.186667-9.194667 10.581333l-15.68-11.093333c6.656-0.832 13.461333-0.682667 19.562667-2.666667 7.253333-2.346667 10.794667-11.2 8.938666-18.517333-1.28-4.970667-8.618667-7.338667-15.082666-4.437334-7.082667 3.178667-13.824 7.210667-21.013334 10.090667-10.453333 4.181333-18.56 1.557333-24-6.933333-4.074667-6.378667-2.389333-17.109333 3.776-23.850667 1.109333-1.194667 2.410667-2.218667 3.456-3.456 2.645333-3.114667 5.205333-6.293333 8.405334-10.176z m-266.24 38.4c-0.789333-1.216-6.656-0.64-8.682667 1.024-3.712 2.986667-6.314667 7.338667-9.365333 11.136l2.133333 3.242667c4.416-1.28 9.109333-2.026667 13.184-4.053334 4.864-2.389333 5.482667-7.338667 2.752-11.370666z m-47.04-86.613333c-4.992-3.157333-8.810667-2.112-10.794667 3.413333-1.706667 4.714667-2.816 9.642667-4.181333 14.464-6.016 21.226667-12.096 42.410667-17.984 63.658667-3.264 11.797333 2.432 19.690667 14.784 19.712 22.058667-2.154667 41.856-10.154667 54.570666-30.485334 1.514667-2.453333 0.789333-7.04-0.213333-10.218666-3.818667-12.096-8.853333-23.850667-12.074667-36.117334-1.706667-6.613333-3.968-11.904-9.856-15.466666-4.821333-2.88-9.514667-5.930667-14.250666-8.96z m100.906666 39.744l-6.229333 2.453333-2.858667 1.621333c-7.594667 5.461333-14.848 11.370667-22.293333 17.045334-7.573333 5.76-10.282667 13.269333-7.402667 20.736 2.304 6.016 14.805333 13.994667 21.184 12.928 2.261333-0.384 5.248-2.133333 6.144-4.096 7.253333-15.488 10.666667-32 13.632-48.64l-2.176-2.048zM156.544 658.986667c9.813333 7.146667 11.2 13.717333 5.973333 25.301333-3.52 7.786667-6.698667 15.722667-10.026666 23.573333l-10.688 24.981334c6.613333-3.072 11.541333-5.162667 16.298666-7.616 4.522667-2.346667 8.661333-5.546667 13.333334-7.466667 6.997333-2.858667 11.669333-6.485333 9.386666-15.36 3.733333 6.677333 7.466667 13.333333 11.157334 20.010667-5.717333-6.016-10.752-3.968-15.573334-1.237334l-2.837333 1.664-1.429333 0.789334c-13.013333 6.869333-25.877333 14.058667-38.826667 21.034666a14.122667 14.122667 0 0 1-8.234667 1.706667l25.962667-62.677333-1.173333-1.642667-40.384 22.912 2.922666 7.936-1.898666 1.066667-11.456-20.330667 1.322666-2.154667c5.546667 8.32 11.008 6.037333 16.533334 2.922667l2.773333-1.6c9.792-5.546667 19.413333-11.52 29.610667-16.149333 8.533333-3.904 9.728-9.664 7.253333-17.664z m261.077333 50.816c-12.266667 5.76-17.002667 16.192-20.650666 27.050666-0.576 1.749333 2.688 6.72 4.693333 7.061334 8.96 1.493333 18.133333 2.026667 27.242667 2.453333 1.066667 0.042667 3.584-3.242667 3.221333-4.053333-4.522667-10.773333-9.450667-21.354667-14.506667-32.512z m27.733334-16.32c-4.416-2.474667-9.002667-4.202667-14.293334 1.578666 5.930667 14.848 11.605333 29.76 17.941334 44.394667 1.28 2.922667 4.864 6.4 7.594666 6.613333 2.325333 0.149333 6.165333-3.669333 7.168-6.485333 2.837333-7.978667 5.376-16.256 6.314667-24.618667 0.384-3.392-2.986667-7.914667-5.845333-10.773333a27.605333 27.605333 0 0 0-11.52-7.04 20.245333 20.245333 0 0 1-4.416-1.984z m231.402666-67.541334c-15.04-5.866667-37.525333 6.762667-41.130666 22.464-3.989333 17.344-6.869333 35.008-11.882667 52.053334-3.477333 11.84-5.44 23.36-4.010667 36.16 3.2 0 5.824 0.618667 8.021334-0.106667a117.802667 117.802667 0 0 0 49.706666-31.168c18.858667-20.010667 20.992-44.970667 7.637334-69.184-2.133333-3.84-4.757333-8.810667-8.341334-10.218667z m-282.773333 24.832c-8.746667-4.266667-18.730667-3.84-28.906667-0.106666 2.666667 5.546667 4.949333 10.090667 7.04 14.72 3.498667 7.637333 1.792 10.944-6.229333 10.581333-6.058667-0.298667-8.896 2.069333-10.325333 7.616-2.197333 8.469333-5.162667 16.789333-6.997334 25.322667-0.490667 2.325333 1.152 6.186667 3.114667 7.701333 4.330667 3.370667 9.258667 6.293333 14.378667 8.192 3.178667 1.173333 8.682667 1.621333 10.538666-0.213333 9.792-9.770667 18.773333-20.330667 27.968-30.677334 3.904-4.416 4.693333-9.322667 2.666667-14.976-1.706667-4.736-2.133333-9.984-4.224-14.506666-2.304-4.992-4.778667-11.584-9.024-13.653334z m454.677333 1.002667c-1.088 8.896 4.650667 11.797333 10.837334 14.72 11.605333 5.546667 23.04 11.349333 34.56 17.066667 7.978667 3.946667 8.96 3.754667 16.277333-2.069334l-12.864 25.664c0.746667-8.810667-4.074667-12.501333-11.050667-15.573333a489.258667 489.258667 0 0 1-32.426666-16.042667c-5.994667-3.2-11.242667-4.693333-15.744 2.730667l-1.642667-1.621333z m-534.613333 16.213333c-4.693333-0.426667-7.210667 2.432-5.610667 6.4 4.394667 10.922667 9.941333 21.034667 22.186667 25.450667 3.946667 1.408 6.101333 1.130667 7.253333-3.093333 2.218667-8.128 4.586667-16.213333 7.317334-25.813334-11.072-1.066667-21.12-2.069333-31.146667-2.965333z m413.802667-121.472l-2.197334 0.426667c0 2.624-0.064 5.248 0 7.893333 0.533333 22.72 2.261333 45.482667 1.216 68.138667-0.64 14.4-4.138667 29.034667-8.704 42.816-3.776 11.434667-10.965333 21.76-16.64 32.554667l2.432 2.133333c4.864-5.333333 10.048-10.410667 14.485334-16.064 8.96-11.456 17.536-23.808 18.56-38.442667 1.365333-20.074667 1.472-40.405333-0.085334-60.458666-1.002667-13.162667-5.909333-26.026667-9.066666-38.997334z m-254.336 94.016c0.362667 13.632 1.194667 26.794667 6.677333 39.082667l3.541333-0.064c1.066667-6.442667 2.069333-12.885333 3.221334-19.306667 2.346667-12.928 0.512-15.765333-13.44-19.712z m143.786666-8.533333h-2.090666c-9.557333 0.469333-18.133333 11.456-15.018667 20.565333 2.688 7.829333 7.04 15.104 11.136 23.658667 13.226667-9.813333 12.501333-22.890667 14.442667-34.602667 1.109333-6.784-3.264-9.962667-10.56-9.6zM111.381333 586.666667c16.490667-1.6 33.813333 15.189333 34.688 32.213333 1.024 20.117333-14.08 34.986667-36.586666 36.010667-18.730667 2.901333-34.496-13.717333-35.2-30.933334-0.853333-20.608 13.802667-35.029333 37.12-37.290666z m20.821334 15.616c-15.189333-8.405333-28.842667-2.410667-42.026667 4.906666-8.64 4.8-12.693333 13.973333-10.730667 21.226667 3.029333 11.050667 10.069333 16.618667 22.122667 16.896 12.693333-2.602667 26.218667-4.693333 35.712-16.234667 6.485333-7.893333 4.032-21.76-5.077333-26.794666z m736.277333-17.450667c1.002667-3.776 3.008-6.122667 7.637333-4.266667 2.816 1.130667 5.973333 1.429333 8.832 2.069334-3.989333 2.517333-8.917333 3.968-11.008 7.253333-7.04 11.029333-5.738667 13.269333 6.869334 16.256 11.136 2.624 22.314667 5.205333 33.322666 8.32 10.837333 3.050667 10.773333 3.328 18.56-4.373333l-6.762666 27.882666-0.021334-0.064-0.362666-2.346666c-1.28-5.973333-4.906667-8.426667-10.56-9.898667l-2.218667-0.512c-15.082667-3.072-29.866667-7.552-45.184-11.562667-4.821333 14.336-4.266667 17.024 6.101333 25.536-5.802667-1.28-10.048-1.514667-13.504-3.306666-1.792-0.917333-3.456-4.864-2.986666-6.954667 3.413333-14.741333 7.36-29.397333 11.285333-44.032z m-536.490667-73.088l-0.938666 0.128c-5.205333 2.773333-11.477333 8.021333-12.501334 13.226667a202.88 202.88 0 0 0-3.626666 40.896c0.149333 24.789333 11.776 44.074667 31.893333 58.24 7.957333 5.610667 11.328 4.565333 13.909333-4.48 7.509333-26.581333 14.677333-53.248 22.101334-80.341334-9.877333-1.6-19.605333 2.133333-26.730667-5.397333-4.565333-4.842667-8.618667-10.218667-13.461333-14.72-3.477333-3.2-9.557333-8.512-11.584-7.424z m127.061334 3.733333c-7.189333-5.312-10.858667-3.946667-13.290667 4.906667-5.056 18.24-5.653333 36.629333 1.770667 54.336 8.682667 20.8 21.162667 38.442667 45.44 46.784 8.170667-26.048 12.373333-52.010667 15.146666-78.250667 0.576-5.333333-2.88-6.314667-7.296-6.037333-8.746667 0.554667-17.088 0.042667-24.021333-6.506667a194.773333 194.773333 0 0 0-17.749333-15.232z m145.962666-4.757333c-2.176 4.928-4.309333 8.405333-5.269333 12.16-4.053333 16-8.426667 31.936-11.306667 48.149333-1.856 10.346667-0.64 21.077333 5.653334 30.208 5.930667 8.618667 14.549333 11.541333 24.96 12.224 10.496 0.661333 15.701333-1.216 18.24-11.242666 2.133333-8.490667 2.986667-17.28 4.437333-25.962667l7.168-42.709333c-8.618667-3.52-16.106667-5.973333-22.997333-9.557334-7.04-3.690667-13.525333-8.533333-20.885334-13.269333z m-477.610666-3.626667l4.330666 54.144-15.04 2.666667c9.6-4.138667 8.853333-12.245333 8.042667-19.84-0.192-1.856-3.648-4.906667-5.418667-4.757333-14.677333 1.130667-29.290667 3.562667-43.989333 4.16-7.445333 0.298667-10.624 2.410667-9.813333 10.218666l-2.602667-0.426666-2.965333-27.648c3.84 2.773333 7.338667 6.805333 11.626666 7.936 4.352 1.152 9.472-0.533333 14.272-1.024 12.266667-1.28 24.533333-2.602667 36.757334-3.904 1.856-13.482667 0.32-16.384-12.736-21.525334z m751.381333-15.189333c17.066667 18.645333 33.216 37.504 62.165333 31.936l3.562667-7.466667 2.112 0.32-2.218667 28.394667c-2.069333-7.914667-6.954667-8.917333-14.101333-9.813333-14.72-1.877333-24.938667 6.826667-36.181333 13.056-6.698667 3.733333-12.522667 9.024-19.52 14.208l2.410666-30.506667c4.309333 12.714667 9.834667 8.896 15.957334 4.714667 5.248-3.562667 11.008-6.357333 18.410666-10.517334-8.832-6.016-15.978667-11.477333-23.744-15.744-1.834667-1.024-5.866667 1.962667-8.853333 3.072zM403.008 447.36l-1.770667 0.064c-15.850667 1.450667-29.632 8.106667-42.794666 16.362667-11.413333 7.146667-15.253333 26.24-7.786667 37.546666 2.944 4.437333 5.333333 9.237333 8.426667 13.546667 4.48 6.293333 9.898667 11.434667 18.474666 11.114667 8.448 0.085333 11.669333-2.965333 12.757334-11.136 0.576-4.437333 1.813333-8.832 3.114666-13.141334 4.693333-15.573333 9.642667-31.04 14.272-46.592 1.706667-5.802667-0.853333-8.213333-6.464-7.701333z m134.570667-1.664c0.042667-16.682667-3.306667-19.434667-14.72-15.509333l-9.856 3.370666c-6.570667 2.304-13.013333 4.949333-18.56 8.789334-19.306667 13.461333-27.008 25.066667-20.693334 44.842666 2.453333 7.765333 7.594667 14.634667 11.072 22.122667 4.693333 10.133333 12.970667 13.184 23.402667 13.568 5.802667 0.213333 8.362667-2.282667 9.706667-7.338667 3.776-14.122667 7.573333-28.245333 11.52-42.325333 3.029333-10.709333 6.314667-21.333333 8.128-27.52z m133.610666-15.936c-2.688 0.832-5.866667 1.002667-8 2.581333l-10.154666 7.445334c-5.056 3.754667-9.962667 7.68-14.208 12.202666-7.957333 8.512-15.232 18.154667-15.509334 31.253334 1.386667 5.930667 2.325333 12.010667 4.266667 17.749333a19.648 19.648 0 0 0 19.776 13.546667c9.173333-0.448 8.533333-8.149333 10.069333-14.016 2.773333-10.538667 5.184-21.184 7.893334-31.744 2.624-10.304 5.696-20.522667 7.978666-30.890667 0.533333-2.453333-1.344-5.397333-2.112-8.106667z m70.250667 3.157333c-2.090667 0.832-5.013333 1.066667-6.144 2.602667-6.613333 8.981333-13.653333 17.877333-18.794667 27.690667-2.24 4.266667-0.384 10.709333-0.384 15.530666 8-9.514667 15.701333-18.133333 22.677334-27.306666 2.56-3.370667 3.882667-7.914667 4.864-12.16 0.426667-1.834667-1.408-4.224-2.218667-6.357334zM169.6 215.786667c0.938667-5.76 6.378667-8.96 12.586667-5.952 22.037333 10.602667 41.472 23.808 47.552 49.706666 0.768 3.328 2.218667 6.485333 4.266666 12.352-6.144-1.770667-10.666667-2.56-14.485333-4.586666-0.746667-0.405333 1.898667-5.738667 1.472-8.576-0.554667-3.690667-1.685333-8.064-4.16-10.56a372.693333 372.693333 0 0 0-25.024-22.570667c-6.314667-5.290667-13.909333-3.456-18.090667 3.413333-4.053333 6.613333-8.021333 13.290667-12.757333 19.413334-3.648 4.714667-3.584 8.277333 0.384 12.565333 10.837333 11.669333 21.397333 23.594667 32.234667 35.242667 3.285333 3.541333 7.104 6.528 10.666666 9.770666-0.426667 0.938667-0.896 1.877333-1.365333 2.816-3.754667-0.576-8.832 0.213333-11.029333-1.92a1107.626667 1107.626667 0 0 1-46.485334-47.872c-6.848-7.594667-4.522667-8.896 1.92-15.978666 7.829333-8.576 20.074667-13.589333 22.314667-27.264z m230.933333 12.736l22.336 51.178666-15.232 7.616-16.96-38.336-13.205333 19.050667-5.568-10.944c12.373333-6.314667 10.922667-25.728 28.629333-28.586667z m404.181334 18.176c3.946667-8.490667 8.597333-8.896 14.357333-1.642667 3.008 3.818667 6.890667 6.954667 9.962667 10.730667 1.92 2.368 3.093333 5.397333 4.608 8.106666-2.645333 1.216-5.184 2.688-7.936 3.541334-1.728 0.533333-3.754667 0.085333-7.744 0.085333 1.621333 3.712 3.072 6.186667 3.797333 8.853333 0.682667 2.517333 0.597333 5.269333 0.853333 7.893334-2.517333-0.64-5.226667-0.853333-7.445333-2.048-2.069333-1.109333-3.584-3.2-5.888-5.376-6.741333 8.405333-15.082667 7.978667-23.594667 6.186666l-4.629333-1.066666c-7.914667-1.898667-8.682667-4.117333-4.693333-11.690667 0.746667-1.386667 1.621333-2.688 2.858666-4.714667 5.333333 6.72 10.304 13.098667 20.032 8.789334 5.312-2.346667 7.04-4.266667 2.218667-8.96-4.48-4.373333-8.32-9.322667-12.373333-14.101334-0.298667-0.384 0.085333-1.344 0.362666-4.714666 5.418667 3.690667 10.112 6.037333 13.653334 9.536 5.973333 5.888 9.664 6.634667 14.485333 1.173333l-12.885333-10.581333z m-223.978667-29.546667l53.546667 20.138667c-3.370667 3.370667-5.12 6.528-7.68 7.509333-16.896 6.336-30.314667 16.597333-39.253334 32.426667a2.325333 2.325333 0 0 1-0.512 0.576l-1.450666 1.109333-15.253334-6.314667c6.186667-6.933333 11.157333-13.802667 17.408-19.2 6.08-5.290667 13.461333-9.066667 21.098667-14.037333l-31.36-12.245333 3.456-9.962667zM198.762667 254.144c7.36-1.728 8.128 0.725333 9.450666 8-2.432 2.346667-4.864 4.714667-7.253333 7.104-0.576 0.554667-1.002667 1.237333-1.450667 1.877333-1.856 2.602667-3.797333 7.466667-5.546666 7.381334-4.16-0.192-9.109333-1.792-11.946667-4.608-1.386667-1.408 0.704-7.018667 2.133333-10.325334 2.666667-6.250667 8.042667-7.893333 14.613334-9.429333z m243.648-36.181333c11.754667-8.170667 24.512-8.192 36.650666-2.496 11.968 5.589333 12.586667 17.642667 12.416 29.12-0.170667 11.754667-7.552 18.56-17.493333 22.677333-13.056 5.44-27.370667 2.688-36.117333-8.021333 7.722667 0.384 12.522667-6.805333 19.946666-0.661334 2.197333 1.792 8.746667 0.533333 11.797334-1.536 2.837333-1.92 3.669333-6.784 5.354666-10.346666-8.704 1.066667-15.893333 2.496-23.125333 2.752-9.258667 0.32-15.573333-4.586667-18.133333-12.821334-2.218667-7.082667 0.704-13.098667" fill="#ffffff" p-id="5217"></path></svg>